<?xml version="1.0" encoding="UTF-8" standalone="no"?>
<!-- Created with Inkscape (http://www.inkscape.org/) -->
<svg xmlns="http://www.w3.org/2000/svg" viewBox="0 0 32.917671 74.503998">
 <path d="M30.818 39.628c.475-1.296.475-3.384 0-4.608L17.438 2.692c-.476-1.296-1.36-1.296-1.903 0L2.155 35.02c-.544 1.224-.544 3.312 0 4.608l13.38 32.184c.544 1.296 1.427 1.296 1.902 0l13.38-32.184z" fill="#fc0" fill-rule="evenodd" stroke="#000" stroke-width="1.44" stroke-linejoin="round"/>
 <path d="M15.77 60.724h2.513v1.152H14.75v-6.264h1.019v5.112zm1.93-7.488c.715 0 .715.72 0 .72h-1.814c-.716 0-.716-.72 0-.72h1.813zm.774-1.296c.716 0 .715.72 0 .72h-3.308c-.716 0-.716-.72 0-.72h3.308zm.642-1.224c.716 0 .716.72 0 .72h-4.598c-.716 0-.716-.72 0-.72h4.598zm.638-1.296c.716 0 .716.72 0 .72h-5.956c-.716 0-.716-.72 0-.72h5.956zm2.967-15.707h2.65c1.357 0 1.63 1.44 1.63 2.089 0 .792-.34 1.44-.816 1.728.408.216.611.432.611 1.8 0 .636.05 1.08.2 1.584h-1.073c-.068-.36-.145-.72-.145-1.368 0-1.008-.068-1.368-.883-1.368h-1.087v2.736H22.72v-7.2zm2.31 3.169c.61 0 .882-.216.882-.936 0-.432-.135-1.008-.747-1.008h-1.358v1.943h1.222zM5.894 33.714h2.65c1.358 0 1.63 1.44 1.63 2.088 0 .792-.34 1.44-.816 1.728.408.216.612.432.612 1.8 0 .636.049 1.08.199 1.584H9.097c-.068-.36-.145-.72-.145-1.368 0-1.008-.068-1.368-.883-1.368H6.982v2.736H5.895v-7.2zm2.31 3.168c.61 0 .883-.216.883-.936 0-.432-.136-1.008-.748-1.008H6.982v1.943h1.223zm8.653-12.255l2.104-4.367h-2.104v4.367zm-3.772 24.289c-.685 0-.686-.72 0-.72h3.256v-3.572a8.507 8.507 0 0 1-1.149-.252l-.337-.111-.323-.127-.305-.143-.285-.158-.264-.175-.242-.192-.215-.21-.186-.228-.153-.248-.114-.267-.072-.284-.024-.302.043-.381.123-.356.189-.319.242-.281.21-.183-.22-.203-.238-.291-.187-.327-.12-.36-.042-.389.04-.41.118-.376.183-.338.238-.297.143-.132-.141-.13-.238-.296-.185-.336-.118-.375-.04-.408.041-.398.117-.37.184-.334.236-.299.216-.203-.205-.186-.24-.29-.187-.328-.12-.364-.042-.39.022-.264.062-.251.1-.24.134-.226.164-.213.191-.198.218-.184.242-.171.264-.157.285-.144.307-.13.325-.114c.379-.11.759-.209 1.15-.261v-3.815l-3.294-6.67h7.265l-3.25 6.747v4.37l-.68.089-.341.061-.324.076-.305.089-.286.1-.264.112-.242.122-.218.129-.192.137-.167.14-.14.144-.112.146-.085.144-.06.143-.035.142-.011.138.026.246.074.223.12.212.167.2.211.193.084.059c.261-.159.544-.274.827-.391l.378-.13.38-.109.375-.088.364-.067.349-.047.326-.029.301-.01.576.025.54.07.494.109.438.14.377.169.31.2.245.257.123.365-.134.34-.25.23-.306.177-.372.151-.435.128-.49.1-.538.066-.573.023-.294-.008-.322-.026-.345-.044-.362-.063-.374-.08-.38-.102-.378-.123a6.262 6.262 0 0 1-.842-.376l-.093.069-.21.199-.166.21-.121.22-.074.233-.026.251.026.261.075.237.12.218.164.205.208.19.195-.11.358-.165.371-.14.378-.115.38-.095.374-.074.364-.056.347-.038.623-.03.573.024.54.066.492.103.438.135.377.162.312.196.246.253.122.361-.123.337-.236.239-.3.19-.368.162-.436.135-.498.1-.553.056-.88-.006-.324-.023-.346-.04-.364-.056-.375-.076-.379-.096-.379-.116-.371-.14-.359-.165-.2-.114-.207.192-.165.206-.12.22-.074.238-.026.263.026.236.073.22.122.213.168.205.213.196.118.086c.378-.209.792-.346 1.203-.476l.378-.1.373-.079.36-.062.342-.043.317-.025.288-.01.57.02.536.057.488.088.434.112.373.137.31.164.255.222.138.34-.122.368-.24.26-.31.207-.376.178-.44.149-.495.116-.542.076-.578.027-.296-.01-.322-.03-.345-.05-.363-.07-.373-.09-.38-.111c-.41-.143-.821-.294-1.195-.516l-.11.074-.212.186-.168.194-.12.202-.072.21-.026.232.014.173.043.171.071.167.1.163.13.16.16.154.187.15.215.141.24.134.262.122.283.111.301.1.317.087.33.073.342.06.671.089v4.204h3.271c.716 0 .716.72 0 .72h-7.247zm3.052-24.333L14 20.26h2.137v4.323zm-1.31 9.538l.342.135.34.11.346.092.342.074.331.057.6.063.25.007.519-.02.48-.06.432-.087.37-.11.294-.119.21-.126-.032-.035-.193-.124-.29-.13-.368-.118-.431-.095-.479-.062-.517-.022-.254.008-.29.026-.314.042-.332.061-.34.08-.345.098c-.226.078-.457.153-.672.255zm-.102 3.163c.46.212.955.33 1.452.429l.333.052.609.057.808.004.483-.048.427-.086.36-.112.282-.124.21-.142-.035-.036-.192-.12-.29-.126-.369-.113-.43-.09-.48-.06-.52-.02-.554.026-.316.035-.334.051c-.492.098-.987.213-1.444.422zm.154 3.143l.299.123.34.12.345.1.34.082.33.064.31.045.284.026.246.009.515-.025.477-.067.43-.1.366-.125.29-.137.195-.13.035-.038-.198-.106-.294-.107-.373-.097-.436-.079-.484-.05-.522-.019-.246.007-.593.063-.33.056-.342.073-.345.09-.342.109-.297.112zm.332-22.99h-1.087l1.766-6.695h1.223l1.766 6.696h-1.087l-.34-1.368H15.62l-.407 1.368zm.679-2.52h1.29l-.679-2.663-.611 2.664zm.626-10.065l12.606 30.456c.475 1.08.475 2.88 0 4.032L16.517 69.652 3.924 39.34c-.475-1.152-.475-2.952 0-4.032L16.517 4.852z" fill-rule="evenodd"/>
</svg>
